#N canvas 0 22 824 467 12;
#X obj 206 10 r fromGUI;
#X obj 206 31 list trim;
#X msg 166 213 transpose \$1;
#X obj 136 309 outlet;
#X msg 256 212 window \$1;
#X msg 328 211 delay \$1;
#X obj 207 75 - 12;
#X obj 304 107 * 2000;
#X obj 365 111 * 3000;
#X obj 567 335 pack s 0;
#X obj 567 377 s toGUI;
#X obj 527 270 symbol /\$1-window-label;
#X msg 567 356 list \$1 \$2;
#X obj 567 290 symbol /\$1-delay-label;
#X obj 488 249 symbol /\$1-transpose-label;
#X obj 488 212 t b f;
#X obj 527 212 t b f;
#X obj 567 212 t b f;
#X obj 206 52 route /\$1-tapeshift-transpose /\$1-tapeshift-window
/\$1-tapeshift-delay;
#X connect 0 0 1 0;
#X connect 1 0 18 0;
#X connect 2 0 3 0;
#X connect 4 0 3 0;
#X connect 5 0 3 0;
#X connect 6 0 2 0;
#X connect 6 0 15 0;
#X connect 7 0 4 0;
#X connect 7 0 16 0;
#X connect 8 0 5 0;
#X connect 8 0 17 0;
#X connect 9 0 12 0;
#X connect 11 0 9 0;
#X connect 12 0 10 0;
#X connect 13 0 9 0;
#X connect 14 0 9 0;
#X connect 15 0 14 0;
#X connect 15 1 9 1;
#X connect 16 0 11 0;
#X connect 16 1 9 1;
#X connect 17 0 13 0;
#X connect 17 1 9 1;
#X connect 18 0 6 0;
#X connect 18 1 7 0;
#X connect 18 2 8 0;
