#N canvas 0 22 1108 467 12;
#X obj 159 338 pack s 0;
#X obj 159 380 s toGUI;
#X msg 159 359 list \$1 \$2;
#X obj 20 214 t b f;
#X obj 188 213 t b f;
#X floatatom 384 231 5 0 0 0 - - -;
#X obj 384 251 sig~;
#X floatatom 453 231 5 0 0 0 - - -;
#X obj 453 251 sig~;
#X text 289 128 filter frequency(hz);
#X text 489 234 Q/bandwith;
#X obj 384 292 outlet~;
#X obj 453 291 outlet~;
#X obj 645 296 outlet;
#X msg 600 173 lowpass;
#X msg 600 193 highpass;
#X msg 600 213 reson;
#X obj 450 41 r fromGUI;
#X obj 450 62 list trim;
#X obj 600 144 route 0 1 2;
#X obj 448 107 * 127;
#X obj 448 128 mtof;
#X obj 500 114 * 20;
#X obj 450 83 route /\$1-freq /\$1-res /\$1-type;
#X obj 20 239 symbol /\$1-res-label;
#X obj 188 237 symbol /\$1-freq-label;
#X obj 400 367 vline~;
#X connect 0 0 2 0;
#X connect 2 0 1 0;
#X connect 3 0 24 0;
#X connect 3 1 0 1;
#X connect 4 0 25 0;
#X connect 4 1 0 1;
#X connect 5 0 6 0;
#X connect 6 0 11 0;
#X connect 7 0 8 0;
#X connect 8 0 12 0;
#X connect 14 0 13 0;
#X connect 15 0 13 0;
#X connect 16 0 13 0;
#X connect 17 0 18 0;
#X connect 18 0 23 0;
#X connect 19 0 14 0;
#X connect 19 1 15 0;
#X connect 19 2 16 0;
#X connect 20 0 21 0;
#X connect 21 0 5 0;
#X connect 21 0 4 0;
#X connect 22 0 7 0;
#X connect 22 0 3 0;
#X connect 23 0 20 0;
#X connect 23 1 22 0;
#X connect 23 2 19 0;
#X connect 24 0 0 0;
#X connect 25 0 0 0;
