#N canvas 77 34 862 467 12;
#X obj 450 41 r fromGUI;
#X obj 450 62 list trim;
#X obj 450 130 outlet;
#X obj 497 210 outlet;
#X obj 450 91 route /\$1-rec /\$1-clr /\$1-playPos /\$1 playSpeed;
#X msg 503 161 clear;
#X msg 562 162 playPos \$1;
#X msg 657 164 playSpeed \$1;
#X connect 0 0 1 0;
#X connect 1 0 4 0;
#X connect 4 0 2 0;
#X connect 4 1 5 0;
#X connect 4 2 6 0;
#X connect 4 3 7 0;
#X connect 5 0 3 0;
#X connect 6 0 3 0;
#X connect 7 0 3 0;
