#N canvas 380 175 450 300 12;
#X msg 327 132 /mark 1;
#X obj 317 91 tgl 15 0 empty empty empty 17 7 0 10 -262144 -1 -1 0
1;
#X msg 317 106 /rec-voicememo \$1;
#X msg 302 69 /rec \$1;
#X obj 302 54 tgl 15 0 empty empty empty 17 7 0 10 -262144 -1 -1 0
1;
#X obj 142 39 inlet~;
#X obj 196 38 inlet~;
#X obj 251 38 inlet;
#N canvas 307 86 1059 654 out-recorder~ 1;
#X obj -119 321 dac~;
#X obj 54 433 adc~;
#X obj 110 476 writesf~ 2;
#X msg 81 371 start;
#X msg 133 371 stop;
#X obj 82 19 r fromGUI;
#X obj 82 40 list trim;
#X obj 82 82 tgl 15 0 empty empty empty 17 7 0 10 -262144 -1 -1 0 1
;
#X obj 82 101 sel 1;
#X obj 179 282 + 1;
#X floatatom 179 304 5 0 0 0 - - -;
#X obj 257 476 writesf~ 2;
#X obj 279 251 textfile;
#X msg 157 146 clear;
#X msg 288 227 write rec-count.txt cr;
#X msg 142 169 read rec-count.txt cr;
#X floatatom 279 271 5 0 0 0 - - -;
#X obj 112 213 bng 15 250 50 0 empty empty empty 17 7 0 10 -262144
-1 -1;
#X msg 128 191 rewind;
#X msg 279 203 add \$1;
#X obj 82 122 t b b b b b b;
#X obj 623 451 timer;
#X floatatom 623 496 5 0 0 0 - - -;
#X obj 610 626 textfile;
#X obj 179 340 t f f b f b;
#X obj 364 392 s toGUI;
#X obj 613 526 pack f f;
#X msg 585 551 add \$2 \$1;
#X msg 854 560 clear;
#X obj 623 472 t b f b b;
#X obj 645 419 sel 1;
#X obj 466 66 tgl 15 0 empty empty empty 17 7 0 10 -262144 -1 -1 0
1;
#X obj 466 86 sel 1;
#X msg 466 117 start;
#X msg 515 118 stop;
#X obj 469 213 writesf~ 2;
#X obj 420 181 adc~;
#X obj 146 37 inlet;
#X obj 82 61 route /rec /mark /rec-voicememo /drive;
#X obj -69 221 *~;
#X obj -119 221 *~;
#X obj -38 117 pack 0 50;
#X obj -38 138 line~;
#X obj -69 187 inlet~;
#X obj -119 187 inlet~;
#X obj -102 54 s toGUI;
#X obj -38 95 expr ($f1*3)+1;
#X msg -102 33 list /drive-label drive_\$1;
#X obj -108 103 loadbang;
#X msg -108 124 1 0;
#X msg 364 371 list /rec-label \$1.wav;
#X msg 257 385 open \$1.wav;
#X msg 179 366 open \$1-adc.wav;
#X msg 521 167 open \$1-vm.wav;
#X msg 452 593 write markers.txt cr;
#X msg 681 557 read markers.txt cr;
#X connect 1 0 2 0;
#X connect 1 1 2 1;
#X connect 3 0 2 0;
#X connect 3 0 11 0;
#X connect 4 0 2 0;
#X connect 4 0 11 0;
#X connect 5 0 6 0;
#X connect 6 0 38 0;
#X connect 7 0 8 0;
#X connect 8 0 20 0;
#X connect 8 1 4 0;
#X connect 9 0 10 0;
#X connect 10 0 24 0;
#X connect 10 0 26 1;
#X connect 10 0 53 0;
#X connect 12 0 16 0;
#X connect 13 0 12 0;
#X connect 14 0 12 0;
#X connect 15 0 12 0;
#X connect 16 0 9 0;
#X connect 17 0 12 0;
#X connect 18 0 12 0;
#X connect 19 0 12 0;
#X connect 20 0 3 0;
#X connect 20 1 21 0;
#X connect 20 2 17 0;
#X connect 20 3 18 0;
#X connect 20 4 15 0;
#X connect 20 5 13 0;
#X connect 21 0 29 0;
#X connect 22 0 26 0;
#X connect 24 0 52 0;
#X connect 24 0 50 0;
#X connect 24 1 51 0;
#X connect 24 2 14 0;
#X connect 24 3 19 0;
#X connect 24 4 13 0;
#X connect 26 0 27 0;
#X connect 27 0 23 0;
#X connect 28 0 23 0;
#X connect 29 0 54 0;
#X connect 29 1 22 0;
#X connect 29 2 55 0;
#X connect 29 3 28 0;
#X connect 30 0 21 1;
#X connect 31 0 32 0;
#X connect 32 0 33 0;
#X connect 32 1 34 0;
#X connect 33 0 35 0;
#X connect 34 0 35 0;
#X connect 36 0 35 0;
#X connect 36 1 35 1;
#X connect 37 0 38 0;
#X connect 38 0 7 0;
#X connect 38 1 30 0;
#X connect 38 2 31 0;
#X connect 38 3 46 0;
#X connect 39 0 0 1;
#X connect 39 0 11 1;
#X connect 40 0 0 0;
#X connect 40 0 11 0;
#X connect 41 0 42 0;
#X connect 42 0 39 1;
#X connect 42 0 40 1;
#X connect 43 0 39 0;
#X connect 44 0 40 0;
#X connect 46 0 41 0;
#X connect 46 0 47 0;
#X connect 47 0 45 0;
#X connect 48 0 49 0;
#X connect 49 0 42 0;
#X connect 50 0 25 0;
#X connect 51 0 11 0;
#X connect 52 0 2 0;
#X connect 53 0 35 0;
#X connect 54 0 23 0;
#X connect 55 0 23 0;
#X restore 145 187 pd out-recorder~;
#X connect 0 0 8 2;
#X connect 1 0 2 0;
#X connect 2 0 8 2;
#X connect 3 0 8 2;
#X connect 4 0 3 0;
#X connect 5 0 8 0;
#X connect 6 0 8 1;
#X connect 7 0 8 2;
