#N canvas 93 84 658 490 10;
#X obj 46 41 inlet~;
#X obj 96 41 inlet~;
#X obj 46 260 outlet~;
#X obj 96 260 outlet~;
#X obj 196 159 *~;
#X obj 246 159 *~;
#X obj 214 28 inlet;
#X obj 196 260 outlet~;
#X obj 246 260 outlet~;
#X obj 261 28 r \$1-tgl-\$2\$3;
#X msg 214 81 \$1 5;
#X obj 348 28 r \$1-tgl-\$2\$3-t;
#X obj 261 131 vline~;
#X msg 269 80 set \$1 \$2 \$3;
#X obj 269 60 r gui;
#X msg 261 103 0 9.30243 60.3805;
#X obj 362 181 snapshot~;
#X obj 362 154 r tick;
#X floatatom 362 202 5 0 0 0 - - -;
#X floatatom 362 309 5 0 0 0 - - -;
#X floatatom 398 309 5 0 0 0 - - -;
#X obj 362 221 change;
#X obj 362 265 t b b f;
#X obj 241 415 s toGUI;
#X obj 361 244 > 0;
#X obj 362 333 pack f f f;
#X msg 422 395 set \$3;
#X obj 362 288 f \$3;
#X obj 398 288 f \$2;
#X obj 422 416 s \$1-tgl-\$2\$3-r;
#X obj 241 394 list prepend /route set;
#X msg 507 357 set \$1 \$2 \$3;
#X obj 507 379 s lcd;
#X floatatom 467 278 5 0 0 0 - - -;
#X floatatom 503 278 5 0 0 0 - - -;
#X obj 467 234 t b b f;
#X obj 467 302 pack f f f;
#X obj 467 257 f \$3;
#X obj 503 257 f \$2;
#X connect 0 0 4 0;
#X connect 0 0 2 0;
#X connect 1 0 5 0;
#X connect 1 0 3 0;
#X connect 4 0 7 0;
#X connect 5 0 8 0;
#X connect 6 0 10 0;
#X connect 9 0 10 0;
#X connect 9 0 15 0;
#X connect 11 0 12 0;
#X connect 12 0 5 1;
#X connect 12 0 4 1;
#X connect 12 0 16 0;
#X connect 13 0 15 0;
#X connect 14 0 13 0;
#X connect 15 0 12 0;
#X connect 16 0 18 0;
#X connect 17 0 16 0;
#X connect 18 0 21 0;
#X connect 19 0 25 0;
#X connect 20 0 25 1;
#X connect 21 0 35 0;
#X connect 22 0 27 0;
#X connect 22 1 28 0;
#X connect 22 2 25 2;
#X connect 24 0 22 0;
#X connect 25 0 26 0;
#X connect 25 0 30 0;
#X connect 26 0 29 0;
#X connect 27 0 19 0;
#X connect 28 0 20 0;
#X connect 30 0 23 0;
#X connect 31 0 32 0;
#X connect 33 0 36 0;
#X connect 34 0 36 1;
#X connect 35 0 37 0;
#X connect 35 1 38 0;
#X connect 35 2 36 2;
#X connect 36 0 31 0;
#X connect 37 0 33 0;
#X connect 38 0 34 0;
