#N canvas 0 28 724 718 10;
#X obj 159 21 inlet~;
#X obj 208 21 inlet~;
#X obj 257 96 throw~ \$0-R0;
#X obj 191 609 outlet~;
#X obj 241 589 catch~ \$0-R0;
#X obj 190 569 catch~ \$0-L0;
#X obj 241 609 outlet~;
#X obj 225 116 throw~ \$0-L0;
#X obj 331 609 outlet~;
#X obj 381 609 outlet~;
#X obj 471 609 outlet~;
#X obj 521 609 outlet~;
#X obj 611 609 outlet~;
#X obj 661 609 outlet~;
#X obj 751 609 outlet~;
#X obj 801 609 outlet~;
#X obj 891 609 outlet~;
#X obj 941 609 outlet~;
#X obj 1031 609 outlet~;
#X obj 1081 609 outlet~;
#X obj 330 568 catch~ \$0-L1;
#X obj 380 589 catch~ \$0-R1;
#X obj 470 569 catch~ \$0-L2;
#X obj 520 589 catch~ \$0-R2;
#X obj 610 569 catch~ \$0-L3;
#X obj 659 588 catch~ \$0-R3;
#X obj 750 569 catch~ \$0-L4;
#X obj 801 589 catch~ \$0-R4;
#X obj 890 568 catch~ \$0-L5;
#X obj 940 588 catch~ \$0-R5;
#X obj 1030 570 catch~ \$0-L6;
#X obj 1081 589 catch~ \$0-R6;
#X obj 1171 609 outlet~;
#X obj 1221 609 outlet~;
#X obj 1170 570 catch~ \$0-L7;
#X obj 1221 589 catch~ \$0-R7;
#X obj 256 156 throw~ \$0-R1;
#X obj 224 176 throw~ \$0-L1;
#X obj 257 215 throw~ \$0-R2;
#X obj 225 235 throw~ \$0-L2;
#X obj 257 276 throw~ \$0-R3;
#X obj 224 296 throw~ \$0-L3;
#X obj 257 335 throw~ \$0-R4;
#X obj 224 356 throw~ \$0-L4;
#X obj 257 395 throw~ \$0-R5;
#X obj 225 415 throw~ \$0-L5;
#X obj 256 456 throw~ \$0-R6;
#X obj 225 476 throw~ \$0-L6;
#X obj 257 515 throw~ \$0-R7;
#X obj 224 536 throw~ \$0-L7;
#X obj 299 21 inlet~;
#X obj 348 21 inlet~;
#X obj 397 96 throw~ \$0-R0;
#X obj 365 116 throw~ \$0-L0;
#X obj 396 156 throw~ \$0-R1;
#X obj 364 176 throw~ \$0-L1;
#X obj 397 215 throw~ \$0-R2;
#X obj 365 235 throw~ \$0-L2;
#X obj 397 276 throw~ \$0-R3;
#X obj 364 296 throw~ \$0-L3;
#X obj 397 335 throw~ \$0-R4;
#X obj 364 356 throw~ \$0-L4;
#X obj 397 395 throw~ \$0-R5;
#X obj 365 415 throw~ \$0-L5;
#X obj 396 456 throw~ \$0-R6;
#X obj 365 476 throw~ \$0-L6;
#X obj 397 515 throw~ \$0-R7;
#X obj 364 536 throw~ \$0-L7;
#X obj 439 21 inlet~;
#X obj 488 21 inlet~;
#X obj 537 96 throw~ \$0-R0;
#X obj 505 116 throw~ \$0-L0;
#X obj 536 156 throw~ \$0-R1;
#X obj 504 176 throw~ \$0-L1;
#X obj 537 215 throw~ \$0-R2;
#X obj 505 235 throw~ \$0-L2;
#X obj 537 276 throw~ \$0-R3;
#X obj 504 296 throw~ \$0-L3;
#X obj 537 335 throw~ \$0-R4;
#X obj 504 356 throw~ \$0-L4;
#X obj 537 395 throw~ \$0-R5;
#X obj 505 415 throw~ \$0-L5;
#X obj 536 456 throw~ \$0-R6;
#X obj 505 476 throw~ \$0-L6;
#X obj 537 515 throw~ \$0-R7;
#X obj 504 536 throw~ \$0-L7;
#X obj 579 21 inlet~;
#X obj 628 21 inlet~;
#X obj 677 96 throw~ \$0-R0;
#X obj 645 116 throw~ \$0-L0;
#X obj 676 156 throw~ \$0-R1;
#X obj 644 176 throw~ \$0-L1;
#X obj 677 215 throw~ \$0-R2;
#X obj 645 235 throw~ \$0-L2;
#X obj 677 276 throw~ \$0-R3;
#X obj 644 296 throw~ \$0-L3;
#X obj 677 335 throw~ \$0-R4;
#X obj 644 356 throw~ \$0-L4;
#X obj 677 395 throw~ \$0-R5;
#X obj 645 415 throw~ \$0-L5;
#X obj 676 456 throw~ \$0-R6;
#X obj 645 476 throw~ \$0-L6;
#X obj 677 515 throw~ \$0-R7;
#X obj 644 536 throw~ \$0-L7;
#X obj 719 21 inlet~;
#X obj 768 21 inlet~;
#X obj 817 96 throw~ \$0-R0;
#X obj 785 116 throw~ \$0-L0;
#X obj 816 156 throw~ \$0-R1;
#X obj 784 176 throw~ \$0-L1;
#X obj 817 215 throw~ \$0-R2;
#X obj 785 235 throw~ \$0-L2;
#X obj 817 276 throw~ \$0-R3;
#X obj 784 296 throw~ \$0-L3;
#X obj 817 335 throw~ \$0-R4;
#X obj 784 356 throw~ \$0-L4;
#X obj 817 395 throw~ \$0-R5;
#X obj 785 415 throw~ \$0-L5;
#X obj 816 456 throw~ \$0-R6;
#X obj 785 476 throw~ \$0-L6;
#X obj 817 515 throw~ \$0-R7;
#X obj 784 536 throw~ \$0-L7;
#X obj 859 21 inlet~;
#X obj 908 21 inlet~;
#X obj 957 96 throw~ \$0-R0;
#X obj 925 116 throw~ \$0-L0;
#X obj 956 156 throw~ \$0-R1;
#X obj 924 176 throw~ \$0-L1;
#X obj 957 215 throw~ \$0-R2;
#X obj 925 235 throw~ \$0-L2;
#X obj 957 276 throw~ \$0-R3;
#X obj 924 296 throw~ \$0-L3;
#X obj 957 335 throw~ \$0-R4;
#X obj 924 356 throw~ \$0-L4;
#X obj 957 395 throw~ \$0-R5;
#X obj 925 415 throw~ \$0-L5;
#X obj 956 456 throw~ \$0-R6;
#X obj 925 476 throw~ \$0-L6;
#X obj 957 515 throw~ \$0-R7;
#X obj 924 536 throw~ \$0-L7;
#X obj 999 21 inlet~;
#X obj 1048 21 inlet~;
#X obj 1097 96 throw~ \$0-R0;
#X obj 1065 116 throw~ \$0-L0;
#X obj 1096 156 throw~ \$0-R1;
#X obj 1064 176 throw~ \$0-L1;
#X obj 1097 215 throw~ \$0-R2;
#X obj 1065 235 throw~ \$0-L2;
#X obj 1097 276 throw~ \$0-R3;
#X obj 1064 296 throw~ \$0-L3;
#X obj 1097 335 throw~ \$0-R4;
#X obj 1064 356 throw~ \$0-L4;
#X obj 1097 395 throw~ \$0-R5;
#X obj 1065 415 throw~ \$0-L5;
#X obj 1096 456 throw~ \$0-R6;
#X obj 1065 476 throw~ \$0-L6;
#X obj 1097 515 throw~ \$0-R7;
#X obj 1064 536 throw~ \$0-L7;
#X obj 1139 21 inlet~;
#X obj 1188 21 inlet~;
#X obj 1237 96 throw~ \$0-R0;
#X obj 1205 116 throw~ \$0-L0;
#X obj 1236 156 throw~ \$0-R1;
#X obj 1204 176 throw~ \$0-L1;
#X obj 1237 215 throw~ \$0-R2;
#X obj 1205 235 throw~ \$0-L2;
#X obj 1237 276 throw~ \$0-R3;
#X obj 1204 296 throw~ \$0-L3;
#X obj 1237 335 throw~ \$0-R4;
#X obj 1204 356 throw~ \$0-L4;
#X obj 1237 395 throw~ \$0-R5;
#X obj 1205 415 throw~ \$0-L5;
#X obj 1236 456 throw~ \$0-R6;
#X obj 1205 476 throw~ \$0-L6;
#X obj 1237 515 throw~ \$0-R7;
#X obj 1204 536 throw~ \$0-L7;
#X obj 158 72 abs-router \$0 0 0;
#X obj 21 21 tgl 15 0 \$0-tgl-00 \$0-tgl-00-r empty 17 7 0 10 -66577
-260097 -1 0 1;
#X obj 36 21 tgl 15 0 \$0-tgl-01 \$0-tgl-01-r empty 17 7 0 10 -66577
-260097 -1 0 1;
#X obj 51 21 tgl 15 0 \$0-tgl-02 \$0-tgl-02-r empty 17 7 0 10 -66577
-260097 -1 0 1;
#X obj 66 21 tgl 15 0 \$0-tgl-03 \$0-tgl-03-r empty 17 7 0 10 -66577
-260097 -1 0 1;
#X obj 81 21 tgl 15 0 \$0-tgl-04 \$0-tgl-04-r empty 17 7 0 10 -66577
-260097 -1 0 1;
#X obj 96 21 tgl 15 0 \$0-tgl-05 \$0-tgl-05-r empty 17 7 0 10 -66577
-260097 -1 0 1;
#X obj 111 21 tgl 15 0 \$0-tgl-06 \$0-tgl-06-r empty 17 7 0 10 -66577
-260097 -1 0 1;
#X obj 126 21 tgl 15 0 \$0-tgl-07 \$0-tgl-07-r empty 17 7 0 10 -66577
-260097 -1 0 1;
#X obj 21 36 tgl 15 0 \$0-tgl-10 \$0-tgl-10-r empty 17 7 0 10 -66577
-260097 -1 0 1;
#X obj 36 36 tgl 15 0 \$0-tgl-11 \$0-tgl-11-r empty 17 7 0 10 -66577
-260097 -1 0 1;
#X obj 51 36 tgl 15 0 \$0-tgl-12 \$0-tgl-12-r empty 17 7 0 10 -66577
-260097 -1 0 1;
#X obj 66 36 tgl 15 0 \$0-tgl-13 \$0-tgl-13-r empty 17 7 0 10 -66577
-260097 -1 0 1;
#X obj 81 36 tgl 15 0 \$0-tgl-14 \$0-tgl-14-r empty 17 7 0 10 -66577
-260097 -1 0 1;
#X obj 96 36 tgl 15 0 \$0-tgl-15 \$0-tgl-15-r empty 17 7 0 10 -66577
-260097 -1 0 1;
#X obj 111 36 tgl 15 0 \$0-tgl-16 \$0-tgl-16-r empty 17 7 0 10 -66577
-260097 -1 0 1;
#X obj 126 36 tgl 15 0 \$0-tgl-17 \$0-tgl-17-r empty 17 7 0 10 -66577
-260097 -1 0 1;
#X obj 21 51 tgl 15 0 \$0-tgl-20 \$0-tgl-20-r empty 17 7 0 10 -66577
-260097 -1 0 1;
#X obj 36 51 tgl 15 0 \$0-tgl-21 \$0-tgl-21-r empty 17 7 0 10 -66577
-260097 -1 0 1;
#X obj 51 51 tgl 15 0 \$0-tgl-22 \$0-tgl-22-r empty 17 7 0 10 -66577
-260097 -1 0 1;
#X obj 66 51 tgl 15 0 \$0-tgl-23 \$0-tgl-23-r empty 17 7 0 10 -66577
-260097 -1 0 1;
#X obj 81 51 tgl 15 0 \$0-tgl-24 \$0-tgl-24-r empty 17 7 0 10 -66577
-260097 -1 0 1;
#X obj 96 51 tgl 15 0 \$0-tgl-25 \$0-tgl-25-r empty 17 7 0 10 -66577
-260097 -1 0 1;
#X obj 111 51 tgl 15 0 \$0-tgl-26 \$0-tgl-26-r empty 17 7 0 10 -66577
-260097 -1 0 1;
#X obj 126 51 tgl 15 0 \$0-tgl-27 \$0-tgl-27-r empty 17 7 0 10 -66577
-260097 -1 0 1;
#X obj 21 66 tgl 15 0 \$0-tgl-30 \$0-tgl-30-r empty 17 7 0 10 -66577
-260097 -1 0 1;
#X obj 36 66 tgl 15 0 \$0-tgl-31 \$0-tgl-31-r empty 17 7 0 10 -66577
-260097 -1 0 1;
#X obj 51 66 tgl 15 0 \$0-tgl-32 \$0-tgl-32-r empty 17 7 0 10 -66577
-260097 -1 0 1;
#X obj 66 66 tgl 15 0 \$0-tgl-33 \$0-tgl-33-r empty 17 7 0 10 -66577
-260097 -1 0 1;
#X obj 81 66 tgl 15 0 \$0-tgl-34 \$0-tgl-34-r empty 17 7 0 10 -66577
-260097 -1 0 1;
#X obj 96 66 tgl 15 0 \$0-tgl-35 \$0-tgl-35-r empty 17 7 0 10 -66577
-260097 -1 0 1;
#X obj 111 66 tgl 15 0 \$0-tgl-36 \$0-tgl-36-r empty 17 7 0 10 -66577
-260097 -1 0 1;
#X obj 126 66 tgl 15 0 \$0-tgl-37 \$0-tgl-37-r empty 17 7 0 10 -66577
-260097 -1 0 1;
#X obj 21 81 tgl 15 0 \$0-tgl-40 \$0-tgl-40-r empty 17 7 0 10 -66577
-260097 -1 0 1;
#X obj 36 81 tgl 15 0 \$0-tgl-41 \$0-tgl-41-r empty 17 7 0 10 -66577
-260097 -1 0 1;
#X obj 51 81 tgl 15 0 \$0-tgl-42 \$0-tgl-42-r empty 17 7 0 10 -66577
-260097 -1 0 1;
#X obj 66 81 tgl 15 0 \$0-tgl-43 \$0-tgl-43-r empty 17 7 0 10 -66577
-260097 -1 0 1;
#X obj 81 81 tgl 15 0 \$0-tgl-44 \$0-tgl-44-r empty 17 7 0 10 -66577
-260097 -1 0 1;
#X obj 96 81 tgl 15 0 \$0-tgl-45 \$0-tgl-45-r empty 17 7 0 10 -66577
-260097 -1 0 1;
#X obj 111 81 tgl 15 0 \$0-tgl-46 \$0-tgl-46-r empty 17 7 0 10 -66577
-260097 -1 0 1;
#X obj 126 81 tgl 15 0 \$0-tgl-47 \$0-tgl-47-r empty 17 7 0 10 -66577
-260097 -1 0 1;
#X obj 21 96 tgl 15 0 \$0-tgl-50 \$0-tgl-50-r empty 17 7 0 10 -66577
-260097 -1 0 1;
#X obj 36 96 tgl 15 0 \$0-tgl-51 \$0-tgl-51-r empty 17 7 0 10 -66577
-260097 -1 0 1;
#X obj 51 96 tgl 15 0 \$0-tgl-52 \$0-tgl-52-r empty 17 7 0 10 -66577
-260097 -1 0 1;
#X obj 66 96 tgl 15 0 \$0-tgl-53 \$0-tgl-53-r empty 17 7 0 10 -66577
-260097 -1 0 1;
#X obj 81 96 tgl 15 0 \$0-tgl-54 \$0-tgl-54-r empty 17 7 0 10 -66577
-260097 -1 0 1;
#X obj 96 96 tgl 15 0 \$0-tgl-55 \$0-tgl-55-r empty 17 7 0 10 -66577
-260097 -1 0 1;
#X obj 111 96 tgl 15 0 \$0-tgl-56 \$0-tgl-56-r empty 17 7 0 10 -66577
-260097 -1 0 1;
#X obj 126 96 tgl 15 0 \$0-tgl-57 \$0-tgl-57-r empty 17 7 0 10 -66577
-260097 -1 0 1;
#X obj 21 111 tgl 15 0 \$0-tgl-60 \$0-tgl-60-r empty 17 7 0 10 -66577
-260097 -1 0 1;
#X obj 36 111 tgl 15 0 \$0-tgl-61 \$0-tgl-61-r empty 17 7 0 10 -66577
-260097 -1 0 1;
#X obj 51 111 tgl 15 0 \$0-tgl-62 \$0-tgl-62-r empty 17 7 0 10 -66577
-260097 -1 0 1;
#X obj 66 111 tgl 15 0 \$0-tgl-63 \$0-tgl-63-r empty 17 7 0 10 -66577
-260097 -1 0 1;
#X obj 81 111 tgl 15 0 \$0-tgl-64 \$0-tgl-64-r empty 17 7 0 10 -66577
-260097 -1 0 1;
#X obj 96 111 tgl 15 0 \$0-tgl-65 \$0-tgl-65-r empty 17 7 0 10 -66577
-260097 -1 0 1;
#X obj 111 111 tgl 15 0 \$0-tgl-66 \$0-tgl-66-r empty 17 7 0 10 -66577
-260097 -1 0 1;
#X obj 126 111 tgl 15 0 \$0-tgl-67 \$0-tgl-67-r empty 17 7 0 10 -66577
-260097 -1 0 1;
#X obj 21 126 tgl 15 0 \$0-tgl-70 \$0-tgl-70-r empty 17 7 0 10 -66577
-260097 -1 0 1;
#X obj 36 126 tgl 15 0 \$0-tgl-71 \$0-tgl-71-r empty 17 7 0 10 -66577
-260097 -1 0 1;
#X obj 51 126 tgl 15 0 \$0-tgl-72 \$0-tgl-72-r empty 17 7 0 10 -66577
-260097 -1 0 1;
#X obj 66 126 tgl 15 0 \$0-tgl-73 \$0-tgl-73-r empty 17 7 0 10 -66577
-260097 -1 0 1;
#X obj 81 126 tgl 15 0 \$0-tgl-74 \$0-tgl-74-r empty 17 7 0 10 -66577
-260097 -1 0 1;
#X obj 96 126 tgl 15 0 \$0-tgl-75 \$0-tgl-75-r empty 17 7 0 10 -66577
-260097 -1 0 1;
#X obj 111 126 tgl 15 0 \$0-tgl-76 \$0-tgl-76-r empty 17 7 0 10 -66577
-260097 -1 0 1;
#X obj 126 126 tgl 15 0 \$0-tgl-77 \$0-tgl-77-r empty 17 7 0 10 -66577
-260097 -1 0 1;
#X obj 1283 22 inlet;
#X obj 1283 52 route bang;
#X obj 1340 127 t b f;
#X obj 1340 155 \$0;
#X obj 1395 184 i;
#X obj 1414 201 i;
#X obj 1357 204 clip 0 1;
#X obj 158 136 abs-router \$0 0 1;
#X obj 158 195 abs-router \$0 0 2;
#X obj 158 255 abs-router \$0 0 3;
#X obj 158 316 abs-router \$0 0 4;
#X obj 158 376 abs-router \$0 0 5;
#X obj 158 436 abs-router \$0 0 6;
#X obj 158 495 abs-router \$0 0 7;
#X obj 298 72 abs-router \$0 1 0;
#X obj 298 136 abs-router \$0 1 1;
#X obj 298 195 abs-router \$0 1 2;
#X obj 298 255 abs-router \$0 1 3;
#X obj 298 316 abs-router \$0 1 4;
#X obj 298 376 abs-router \$0 1 5;
#X obj 298 436 abs-router \$0 1 6;
#X obj 298 495 abs-router \$0 1 7;
#X obj 438 72 abs-router \$0 2 0;
#X obj 438 136 abs-router \$0 2 1;
#X obj 438 195 abs-router \$0 2 2;
#X obj 438 255 abs-router \$0 2 3;
#X obj 438 316 abs-router \$0 2 4;
#X obj 438 376 abs-router \$0 2 5;
#X obj 438 436 abs-router \$0 2 6;
#X obj 438 495 abs-router \$0 2 7;
#X obj 578 72 abs-router \$0 3 0;
#X obj 578 136 abs-router \$0 3 1;
#X obj 578 195 abs-router \$0 3 2;
#X obj 578 255 abs-router \$0 3 3;
#X obj 578 316 abs-router \$0 3 4;
#X obj 578 376 abs-router \$0 3 5;
#X obj 578 436 abs-router \$0 3 6;
#X obj 578 495 abs-router \$0 3 7;
#X obj 718 72 abs-router \$0 4 0;
#X obj 718 136 abs-router \$0 4 1;
#X obj 718 195 abs-router \$0 4 2;
#X obj 718 255 abs-router \$0 4 3;
#X obj 718 316 abs-router \$0 4 4;
#X obj 718 376 abs-router \$0 4 5;
#X obj 718 436 abs-router \$0 4 6;
#X obj 718 495 abs-router \$0 4 7;
#X obj 858 72 abs-router \$0 5 0;
#X obj 858 136 abs-router \$0 5 1;
#X obj 858 195 abs-router \$0 5 2;
#X obj 858 255 abs-router \$0 5 3;
#X obj 858 316 abs-router \$0 5 4;
#X obj 858 376 abs-router \$0 5 5;
#X obj 858 436 abs-router \$0 5 6;
#X obj 858 495 abs-router \$0 5 7;
#X obj 998 72 abs-router \$0 6 0;
#X obj 998 136 abs-router \$0 6 1;
#X obj 998 195 abs-router \$0 6 2;
#X obj 998 255 abs-router \$0 6 3;
#X obj 998 316 abs-router \$0 6 4;
#X obj 998 376 abs-router \$0 6 5;
#X obj 998 436 abs-router \$0 6 6;
#X obj 998 495 abs-router \$0 6 7;
#X obj 1138 72 abs-router \$0 7 0;
#X obj 1138 136 abs-router \$0 7 1;
#X obj 1138 195 abs-router \$0 7 2;
#X obj 1138 255 abs-router \$0 7 3;
#X obj 1138 316 abs-router \$0 7 4;
#X obj 1138 376 abs-router \$0 7 5;
#X obj 1138 436 abs-router \$0 7 6;
#X obj 1138 495 abs-router \$0 7 7;
#X text -1 634 Sumidero (January 2013) under GPL V3 license.;
#X obj 1377 154 i;
#X obj 1340 92 unpack f f f f f;
#X msg 1340 292 \; \$1-tgl-\$4\$5-r \$2 \; \$1-tgl-\$4\$5-t \$2 \$3
\$6;
#X obj 1340 226 pack f f f f f f;
#X floatatom 21 142 5 0 1 0 - - -;
#X floatatom 21 157 5 0 0 0 - - -;
#X floatatom 21 172 5 0 0 0 - - -;
#X text 54 142 set value;
#X text 54 156 fade (ms);
#X text 54 171 wait (ms);
#X obj 65 299 pack f f f;
#X obj 65 244 t b f;
#X obj 29 244 t b f;
#X msg 65 320 \; gui \$1 \$2 \$3;
#X msg 1340 249 \; \$1-tgl-\$4\$5-t \$2 \$3 \$6;
#X obj -171 43 r fromGUI;
#X obj -171 64 list trim;
#X obj -171 85 route /value /fade-ms /wait-ms;
#X obj 1504 174 unpack f f f;
#X obj 1504 48 r fromGUI;
#X obj 1504 69 list trim;
#X obj 1504 90 route /route;
#X obj 1505 216 t b f;
#X obj 1505 237 \$0;
#X obj 1505 258 pack f f f f;
#X obj 1538 196 i;
#X obj 1574 196 i;
#X obj 1504 131 t b a;
#X msg 1504 153 0 1 0;
#X msg 1505 281 \; \$1-tgl-\$3\$4-r \$2 \;;
#X msg -171 278 0;
#X msg -57 299 1;
#X obj -114 278 moses 0.97;
#X obj -171 257 moses 0.04;
#X obj -37 436 s toGUI;
#X obj -187 528 loadbang;
#X obj -187 570 tgl 15 0 empty empty empty 17 7 0 10 -262144 -1 -1
1 1;
#X obj -187 590 metro 100;
#X obj -187 611 s tick;
#X msg 1504 111 set \$3 \$2 \$1;
#X obj -187 549 del 100;
#X text 0 648 masi (June 2020): modified to allow time-control and
scheduling \, control to line and interface with MobMuPlat;
#X msg -37 367 list /value-label \$1;
#X msg -30 388 list /fade-ms-label \$1;
#X msg -23 409 list /wait-ms-label \$1;
#N canvas 0 22 450 300 better-slider 0;
#X obj 100 138 mtof;
#X obj 100 159 - 8;
#X obj 97 106 * 150;
#X obj 100 180 clip 0 100000;
#X obj 73 54 inlet;
#X obj 154 221 outlet;
#X connect 0 0 1 0;
#X connect 1 0 3 0;
#X connect 2 0 0 0;
#X connect 3 0 5 0;
#X connect 4 0 2 0;
#X restore -115 140 pd better-slider;
#N canvas 0 22 450 300 better-slider 0;
#X obj 100 138 mtof;
#X obj 100 159 - 8;
#X obj 97 106 * 150;
#X obj 100 180 clip 0 100000;
#X obj 73 54 inlet;
#X obj 154 221 outlet;
#X connect 0 0 1 0;
#X connect 1 0 3 0;
#X connect 2 0 0 0;
#X connect 3 0 5 0;
#X connect 4 0 2 0;
#X restore -83 116 pd better-slider;
#X connect 0 0 176 0;
#X connect 1 0 176 1;
#X connect 4 0 6 0;
#X connect 5 0 3 0;
#X connect 20 0 8 0;
#X connect 21 0 9 0;
#X connect 22 0 10 0;
#X connect 23 0 11 0;
#X connect 24 0 12 0;
#X connect 25 0 13 0;
#X connect 26 0 14 0;
#X connect 27 0 15 0;
#X connect 28 0 16 0;
#X connect 29 0 17 0;
#X connect 30 0 18 0;
#X connect 31 0 19 0;
#X connect 34 0 32 0;
#X connect 35 0 33 0;
#X connect 50 0 255 0;
#X connect 51 0 255 1;
#X connect 68 0 263 0;
#X connect 69 0 263 1;
#X connect 86 0 271 0;
#X connect 87 0 271 1;
#X connect 104 0 279 0;
#X connect 105 0 279 1;
#X connect 122 0 287 0;
#X connect 123 0 287 1;
#X connect 140 0 295 0;
#X connect 141 0 295 1;
#X connect 158 0 303 0;
#X connect 159 0 303 1;
#X connect 176 0 248 0;
#X connect 176 1 248 1;
#X connect 176 2 7 0;
#X connect 176 3 2 0;
#X connect 241 0 242 0;
#X connect 242 1 313 0;
#X connect 243 0 244 0;
#X connect 243 1 247 0;
#X connect 244 0 315 0;
#X connect 245 0 315 3;
#X connect 246 0 315 4;
#X connect 247 0 315 1;
#X connect 248 0 249 0;
#X connect 248 1 249 1;
#X connect 248 2 37 0;
#X connect 248 3 36 0;
#X connect 249 0 250 0;
#X connect 249 1 250 1;
#X connect 249 2 39 0;
#X connect 249 3 38 0;
#X connect 250 0 251 0;
#X connect 250 1 251 1;
#X connect 250 2 41 0;
#X connect 250 3 40 0;
#X connect 251 0 252 0;
#X connect 251 1 252 1;
#X connect 251 2 43 0;
#X connect 251 3 42 0;
#X connect 252 0 253 0;
#X connect 252 1 253 1;
#X connect 252 2 45 0;
#X connect 252 3 44 0;
#X connect 253 0 254 0;
#X connect 253 1 254 1;
#X connect 253 2 47 0;
#X connect 253 3 46 0;
#X connect 254 2 49 0;
#X connect 254 3 48 0;
#X connect 255 0 256 0;
#X connect 255 1 256 1;
#X connect 255 2 53 0;
#X connect 255 3 52 0;
#X connect 256 0 257 0;
#X connect 256 1 257 1;
#X connect 256 2 55 0;
#X connect 256 3 54 0;
#X connect 257 0 258 0;
#X connect 257 1 258 1;
#X connect 257 2 57 0;
#X connect 257 3 56 0;
#X connect 258 0 259 0;
#X connect 258 1 259 1;
#X connect 258 2 59 0;
#X connect 258 3 58 0;
#X connect 259 0 260 0;
#X connect 259 1 260 1;
#X connect 259 2 61 0;
#X connect 259 3 60 0;
#X connect 260 0 261 0;
#X connect 260 1 261 1;
#X connect 260 2 63 0;
#X connect 260 3 62 0;
#X connect 261 0 262 0;
#X connect 261 1 262 1;
#X connect 261 2 65 0;
#X connect 261 3 64 0;
#X connect 262 2 67 0;
#X connect 262 3 66 0;
#X connect 263 0 264 0;
#X connect 263 1 264 1;
#X connect 263 2 71 0;
#X connect 263 3 70 0;
#X connect 264 0 265 0;
#X connect 264 1 265 1;
#X connect 264 2 73 0;
#X connect 264 3 72 0;
#X connect 265 0 266 0;
#X connect 265 1 266 1;
#X connect 265 2 75 0;
#X connect 265 3 74 0;
#X connect 266 0 267 0;
#X connect 266 1 267 1;
#X connect 266 2 77 0;
#X connect 266 3 76 0;
#X connect 267 0 268 0;
#X connect 267 1 268 1;
#X connect 267 2 79 0;
#X connect 267 3 78 0;
#X connect 268 0 269 0;
#X connect 268 1 269 1;
#X connect 268 2 81 0;
#X connect 268 3 80 0;
#X connect 269 0 270 0;
#X connect 269 1 270 1;
#X connect 269 2 83 0;
#X connect 269 3 82 0;
#X connect 270 2 85 0;
#X connect 270 3 84 0;
#X connect 271 0 272 0;
#X connect 271 1 272 1;
#X connect 271 2 89 0;
#X connect 271 3 88 0;
#X connect 272 0 273 0;
#X connect 272 1 273 1;
#X connect 272 2 91 0;
#X connect 272 3 90 0;
#X connect 273 0 274 0;
#X connect 273 1 274 1;
#X connect 273 2 93 0;
#X connect 273 3 92 0;
#X connect 274 0 275 0;
#X connect 274 1 275 1;
#X connect 274 2 95 0;
#X connect 274 3 94 0;
#X connect 275 0 276 0;
#X connect 275 1 276 1;
#X connect 275 2 97 0;
#X connect 275 3 96 0;
#X connect 276 0 277 0;
#X connect 276 1 277 1;
#X connect 276 2 99 0;
#X connect 276 3 98 0;
#X connect 277 0 278 0;
#X connect 277 1 278 1;
#X connect 277 2 101 0;
#X connect 277 3 100 0;
#X connect 278 2 103 0;
#X connect 278 3 102 0;
#X connect 279 0 280 0;
#X connect 279 1 280 1;
#X connect 279 2 107 0;
#X connect 279 3 106 0;
#X connect 280 0 281 0;
#X connect 280 1 281 1;
#X connect 280 2 109 0;
#X connect 280 3 108 0;
#X connect 281 0 282 0;
#X connect 281 1 282 1;
#X connect 281 2 111 0;
#X connect 281 3 110 0;
#X connect 282 0 283 0;
#X connect 282 1 283 1;
#X connect 282 2 113 0;
#X connect 282 3 112 0;
#X connect 283 0 284 0;
#X connect 283 1 284 1;
#X connect 283 2 115 0;
#X connect 283 3 114 0;
#X connect 284 0 285 0;
#X connect 284 1 285 1;
#X connect 284 2 117 0;
#X connect 284 3 116 0;
#X connect 285 0 286 0;
#X connect 285 1 286 1;
#X connect 285 2 119 0;
#X connect 285 3 118 0;
#X connect 286 2 121 0;
#X connect 286 3 120 0;
#X connect 287 0 288 0;
#X connect 287 1 288 1;
#X connect 287 2 125 0;
#X connect 287 3 124 0;
#X connect 288 0 289 0;
#X connect 288 1 289 1;
#X connect 288 2 127 0;
#X connect 288 3 126 0;
#X connect 289 0 290 0;
#X connect 289 1 290 1;
#X connect 289 2 129 0;
#X connect 289 3 128 0;
#X connect 290 0 291 0;
#X connect 290 1 291 1;
#X connect 290 2 131 0;
#X connect 290 3 130 0;
#X connect 291 0 292 0;
#X connect 291 1 292 1;
#X connect 291 2 133 0;
#X connect 291 3 132 0;
#X connect 292 0 293 0;
#X connect 292 1 293 1;
#X connect 292 2 135 0;
#X connect 292 3 134 0;
#X connect 293 0 294 0;
#X connect 293 1 294 1;
#X connect 293 2 137 0;
#X connect 293 3 136 0;
#X connect 294 2 139 0;
#X connect 294 3 138 0;
#X connect 295 0 296 0;
#X connect 295 1 296 1;
#X connect 295 2 143 0;
#X connect 295 3 142 0;
#X connect 296 0 297 0;
#X connect 296 1 297 1;
#X connect 296 2 145 0;
#X connect 296 3 144 0;
#X connect 297 0 298 0;
#X connect 297 1 298 1;
#X connect 297 2 147 0;
#X connect 297 3 146 0;
#X connect 298 0 299 0;
#X connect 298 1 299 1;
#X connect 298 2 149 0;
#X connect 298 3 148 0;
#X connect 299 0 300 0;
#X connect 299 1 300 1;
#X connect 299 2 151 0;
#X connect 299 3 150 0;
#X connect 300 0 301 0;
#X connect 300 1 301 1;
#X connect 300 2 153 0;
#X connect 300 3 152 0;
#X connect 301 0 302 0;
#X connect 301 1 302 1;
#X connect 301 2 155 0;
#X connect 301 3 154 0;
#X connect 302 2 157 0;
#X connect 302 3 156 0;
#X connect 303 0 304 0;
#X connect 303 1 304 1;
#X connect 303 2 161 0;
#X connect 303 3 160 0;
#X connect 304 0 305 0;
#X connect 304 1 305 1;
#X connect 304 2 163 0;
#X connect 304 3 162 0;
#X connect 305 0 306 0;
#X connect 305 1 306 1;
#X connect 305 2 165 0;
#X connect 305 3 164 0;
#X connect 306 0 307 0;
#X connect 306 1 307 1;
#X connect 306 2 167 0;
#X connect 306 3 166 0;
#X connect 307 0 308 0;
#X connect 307 1 308 1;
#X connect 307 2 169 0;
#X connect 307 3 168 0;
#X connect 308 0 309 0;
#X connect 308 1 309 1;
#X connect 308 2 171 0;
#X connect 308 3 170 0;
#X connect 309 0 310 0;
#X connect 309 1 310 1;
#X connect 309 2 173 0;
#X connect 309 3 172 0;
#X connect 310 2 175 0;
#X connect 310 3 174 0;
#X connect 312 0 315 2;
#X connect 313 0 243 0;
#X connect 313 1 312 0;
#X connect 313 2 245 0;
#X connect 313 3 246 0;
#X connect 313 4 315 5;
#X connect 315 0 326 0;
#X connect 316 0 322 0;
#X connect 316 0 354 0;
#X connect 317 0 324 0;
#X connect 317 0 355 0;
#X connect 318 0 323 0;
#X connect 318 0 356 0;
#X connect 322 0 325 0;
#X connect 323 0 322 0;
#X connect 323 1 322 2;
#X connect 324 0 322 0;
#X connect 324 1 322 1;
#X connect 327 0 328 0;
#X connect 328 0 329 0;
#X connect 329 0 345 0;
#X connect 329 1 357 0;
#X connect 329 2 318 0;
#X connect 329 2 358 0;
#X connect 330 0 334 0;
#X connect 330 1 337 0;
#X connect 330 2 338 0;
#X connect 331 0 332 0;
#X connect 332 0 333 0;
#X connect 333 0 351 0;
#X connect 334 0 335 0;
#X connect 334 1 336 1;
#X connect 335 0 336 0;
#X connect 336 0 341 0;
#X connect 337 0 336 2;
#X connect 338 0 336 3;
#X connect 339 0 340 0;
#X connect 339 1 340 0;
#X connect 340 0 330 0;
#X connect 342 0 316 0;
#X connect 343 0 316 0;
#X connect 344 0 316 0;
#X connect 344 1 343 0;
#X connect 345 0 342 0;
#X connect 345 1 344 0;
#X connect 347 0 352 0;
#X connect 348 0 349 0;
#X connect 349 0 350 0;
#X connect 351 0 339 0;
#X connect 352 0 348 0;
#X connect 354 0 346 0;
#X connect 355 0 346 0;
#X connect 356 0 346 0;
#X connect 357 0 317 0;
#X connect 358 0 318 0;
#X coords 0 -1 1 1 122 168 2 20 20;
