#N struct 1075-template float x float y float c float s float th float
stretch array 1075-plus 1075-template-y array 1075-minus 1075-template-y
;
#N struct 1075-template-y float y;
#N struct 1076-template float x float y float c float s float th float
stretch array 1076-plus 1076-template-y array 1076-minus 1076-template-y
;
#N struct 1076-template-y float y;
#N canvas 0 0 1366 746 10;
#X declare -path autelos;
#X declare -path audiolab;
#X declare -path mmp;
#X declare -path hcs;
#X msg 474 -63 1 150 5 1 0;
#X obj 474 -85 t b a;
#X obj 240 -181 adc~;
#X obj -153 140 declare -path autelos;
#X obj 319 13 connect8x8Unit~;
#X obj 305 -363 r~ i-0l;
#X obj 312 -343 r~ i-0r;
#X obj 176 687 s~ i-1l;
#X obj 359 689 s~ i-1r;
#X obj 240 -158 s~ i-0l;
#X obj 261 -137 s~ i-0r;
#X obj 319 -323 r~ i-1l;
#X obj 326 -303 r~ i-1r;
#X obj 411 564 s~ i-2l;
#X obj 485 564 s~ i-2r;
#X obj 334 -282 r~ i-2l;
#X obj 341 -262 r~ i-2r;
#X obj 348 -242 r~ i-3l;
#X obj 355 -222 r~ i-3r;
#X obj 597 681 s~ i-3l;
#X obj 780 682 s~ i-3r;
#X obj -13 615 cnv 15 1 1 empty empty 0 20 12 0 30 -233017 -1 0;
#X obj 162 491 cnv 15 1 1 empty empty 1 20 12 0 30 -233017 -1 0;
#X obj 390 492 cnv 15 1 1 empty empty 2 20 12 0 30 -233017 -1 0;
#X obj 573 493 cnv 15 1 1 empty empty 3 20 12 0 30 -233017 -1 0;
#X obj 474 -128 r r;
#X obj 474 -41 pack f f f f f;
#X msg 474 -106 set \$3 \$4 \$2 \$1 \$5;
#X obj 803 49 tgl 15 0 empty empty empty 17 7 0 10 -262144 -1 -1 0
1;
#X obj 935 59 tgl 15 0 empty empty empty 17 7 0 10 -262144 -1 -1 0
1;
#X text -154 595 test_6 gegen 8:00;
#X obj 935 78 metro 125;
#X text -154 609 test_b_1 gegen 5:00;
#X obj 803 81 metro 4000;
#X obj 838 568 s~ i-4l;
#X obj 912 568 s~ i-4r;
#X obj 362 -202 r~ i-4l;
#X obj 369 -182 r~ i-4r;
#X msg -77 352 save 0;
#X obj -152 276 loadbang;
#X msg -138 351 recall 0;
#X obj -138 372 s save;
#X msg -140 395 \; r 0 1 1 0 0 \; r 0 2 1 0 0 \; r 0 4 1 0 0 \; r 1
3 1 0 0 \; r 4 3 1 0 0;
#X msg 804 110 \; r 2 3 1 1000 0 \; r 2 3 0 5 1200;
#X floatatom 935 110 5 0 0 0 - - -;
#X floatatom 1033 109 5 0 0 0 - - -;
#X msg 935 129 \; r 0 3 \$1 5 0 \;;
#X msg 1033 128 \; r 0 3 \$1 5 20;
#X obj 556 77 metro 1000;
#X obj 555 59 tgl 15 0 empty empty empty 17 7 0 10 -262144 -1 -1 0
1;
#X text 253 28 tapeshift~;
#X text 288 13 adc~;
#X text -149 664 situ.in;
#X text -137 674 ism.ms;
#X obj 411 523 pp.vcfilter-st~-mmp;
#X obj 838 527 pp.vcfilter-st~-mmp;
#N canvas 307 67 1059 654 out-rec~ 0;
#X obj -146 49 inlet~;
#X obj -96 49 inlet~;
#X obj -127 150 dac~;
#X obj 54 433 adc~;
#X obj 110 476 writesf~ 2;
#X msg 81 371 start;
#X msg 133 371 stop;
#X obj 82 19 r fromGUI;
#X obj 82 40 list trim;
#X obj 82 82 tgl 15 0 empty empty empty 17 7 0 10 -262144 -1 -1 0 1
;
#X obj 82 101 sel 1;
#X obj 179 282 + 1;
#X floatatom 179 304 5 0 0 0 - - -;
#X obj 257 476 writesf~ 2;
#X obj 279 251 textfile;
#X msg 157 146 clear;
#X msg 288 227 write rec-count.txt cr;
#X msg 142 169 read rec-count.txt cr;
#X floatatom 279 271 5 0 0 0 - - -;
#X obj 112 213 bng 15 250 50 0 empty empty empty 17 7 0 10 -262144
-1 -1;
#X msg 128 191 rewind;
#X msg 279 203 add \$1;
#X obj 82 122 t b b b b b b;
#X msg 257 385 open ma-\$1.wav;
#X msg 179 366 open ma-\$1-adc.wav;
#X obj 623 451 timer;
#X floatatom 623 496 5 0 0 0 - - -;
#X obj 610 626 textfile;
#X obj 179 340 t f f b f b;
#X obj 364 392 s toGUI;
#X msg 364 371 list /rec-label ma-\$1.wav;
#X obj 613 526 pack f f;
#X msg 585 551 add \$2 \$1;
#X msg 452 593 write ma-notes.txt cr;
#X msg 681 557 read ma-notes.txt cr;
#X msg 854 560 clear;
#X obj 623 472 t b f b b;
#X obj 645 419 sel 1;
#X obj 82 61 route /rec /mark /rec-voicememo;
#X obj 466 66 tgl 15 0 empty empty empty 17 7 0 10 -262144 -1 -1 0
1;
#X obj 466 86 sel 1;
#X msg 466 117 start;
#X msg 515 118 stop;
#X obj 469 213 writesf~ 2;
#X obj 420 181 adc~;
#X msg 521 167 open ma-\$1-vm.wav;
#X obj 174 26 inlet;
#X connect 0 0 2 0;
#X connect 0 0 13 0;
#X connect 1 0 2 1;
#X connect 1 0 13 1;
#X connect 3 0 4 0;
#X connect 3 1 4 1;
#X connect 5 0 4 0;
#X connect 5 0 13 0;
#X connect 6 0 4 0;
#X connect 6 0 13 0;
#X connect 7 0 8 0;
#X connect 8 0 38 0;
#X connect 9 0 10 0;
#X connect 10 0 22 0;
#X connect 10 1 6 0;
#X connect 11 0 12 0;
#X connect 12 0 28 0;
#X connect 12 0 31 1;
#X connect 12 0 45 0;
#X connect 14 0 18 0;
#X connect 15 0 14 0;
#X connect 16 0 14 0;
#X connect 17 0 14 0;
#X connect 18 0 11 0;
#X connect 19 0 14 0;
#X connect 20 0 14 0;
#X connect 21 0 14 0;
#X connect 22 0 5 0;
#X connect 22 1 25 0;
#X connect 22 2 19 0;
#X connect 22 3 20 0;
#X connect 22 4 17 0;
#X connect 22 5 15 0;
#X connect 23 0 13 0;
#X connect 24 0 4 0;
#X connect 25 0 36 0;
#X connect 26 0 31 0;
#X connect 28 0 24 0;
#X connect 28 0 30 0;
#X connect 28 1 23 0;
#X connect 28 2 16 0;
#X connect 28 3 21 0;
#X connect 28 4 15 0;
#X connect 30 0 29 0;
#X connect 31 0 32 0;
#X connect 32 0 27 0;
#X connect 33 0 27 0;
#X connect 34 0 27 0;
#X connect 35 0 27 0;
#X connect 36 0 33 0;
#X connect 36 1 26 0;
#X connect 36 2 34 0;
#X connect 36 3 35 0;
#X connect 37 0 25 1;
#X connect 38 0 9 0;
#X connect 38 1 37 0;
#X connect 38 2 39 0;
#X connect 39 0 40 0;
#X connect 40 0 41 0;
#X connect 40 1 42 0;
#X connect 41 0 43 0;
#X connect 42 0 43 0;
#X connect 44 0 43 0;
#X connect 44 1 43 1;
#X connect 45 0 43 0;
#X connect 46 0 38 0;
#X restore 8 645 pd out-rec~;
#X text -155 11 8x8 stereo patching matrix with scheduling and definable
fade-times, f 73;
#X msg 556 99 \; r 1 3 1 0 0 \; r 1 3 0 0 150;
#X text -152 31 cli:;
#X obj 377 -163 r~ i-5l;
#X obj 384 -143 r~ i-5r;
#X obj -153 160 declare -path audiolab;
#X obj 1261 498 pp.sfplayer~;
#A saved empty_slot \; empty_slot \; empty_slot \; empty_slot \; empty_slot
\; empty_slot \; empty_slot \; empty_slot \; empty_slot \; empty_slot
\; empty_slot \; empty_slot \; empty_slot \; empty_slot \; empty_slot
\; empty_slot \; empty_slot \; empty_slot \; empty_slot \; empty_slot
\; empty_slot \;;
#X obj 667 52 tgl 15 0 empty empty empty 17 7 0 10 -262144 -1 -1 0
1;
#N canvas 88 25 1208 695 bufferlooper 0;
#X obj 408 646 outlet~;
#X obj 402 46 inlet~;
#X obj 689 629 outlet;
#X text 399 27 Audio In;
#X text 865 19 Message Routing;
#X obj 866 39 inlet;
#X msg 914 235 \; \$1 const 0 \;;
#X obj 914 215 symbol \$0-loop;
#X obj 1021 247 s \$0-isActive;
#X obj 863 130 bng 15 250 50 0 empty empty Clear 17 7 0 10 -262144
-1 -1;
#X obj 16 464 loadbang;
#X obj 16 506 s \$0-isActive;
#X msg 16 485 0;
#X obj 820 103 s \$0-recToggle;
#X obj 487 91 r \$0-recToggle;
#X obj 689 587 r \$0-length;
#X obj 689 609 nbx 5 14 -1e+37 1e+37 0 0 empty empty empty 0 -8 0 10
-262144 -1 -1 0 256;
#X obj 471 504 r \$0-isActive;
#X obj 471 524 tgl 15 0 empty empty empty 17 7 0 10 -262144 -1 -1 0
1;
#X obj 471 546 outlet;
#X obj 498 416 *~;
#X obj 486 163 tgl 15 0 empty empty Overdubbing 0 -6 0 8 -262144 -1
-1 0 1;
#X obj 562 327 loadbang;
#X obj 513 205 sel 1;
#X obj 667 362 r \$0-length;
#X obj 514 319 delay;
#X obj 541 292 r \$0-length;
#X obj 584 487 delwrite~ \$0-loop 30000;
#X obj 360 69 delwrite~ \$0-buffer 30000;
#X obj 927 125 s \$0-length;
#X obj 332 299 r \$0-length;
#X obj 486 132 bng 15 250 50 0 empty empty empty 17 7 0 10 -262144
-1 -1;
#X obj 408 593 *~;
#X obj 844 394 r \$0-length;
#X msg 844 473 0;
#X obj 844 494 s \$0-isActive;
#X msg 1021 215 0;
#X obj 863 155 t b b b;
#X msg 798 236 \; \$1 const 0 \;;
#X obj 798 215 symbol \$0-buffer;
#X floatatom 984 83 5 0 0 0 - - -;
#X msg 423 547 \$1 5;
#X obj 423 568 vline~;
#X obj 513 385 line~;
#X msg 487 342 \$1 5;
#X obj 486 184 t f f;
#X msg 562 347 0 0;
#X obj 513 226 t b b;
#X obj 540 268 s \$0-isActive;
#X msg 540 247 1;
#X obj 844 415 sel 0;
#X obj 332 341 delread~ \$0-buffer;
#X obj 667 404 delread~ \$0-loop;
#X obj 584 457 *~;
#X msg 600 413 \$1 5;
#X obj 600 434 vline~;
#X obj 355 391 r \$0-length;
#X obj 326 466 delread4~ \$0-loop;
#X floatatom 280 363 0 0 1000 0 - - -;
#X obj 37 347 / 8;
#X msg 116 391 playPos \$1;
#X obj 68 237 metro;
#X obj 70 110 spigot;
#X obj 70 133 t b f;
#X obj 68 260 bng 15 250 50 0 empty empty empty 17 7 0 10 -262144 -1
-1;
#X obj 93 85 > 0;
#X msg 68 213 1;
#X obj 120 86 == 0;
#X msg 120 107 0;
#X obj 70 56 t f f f;
#X obj 101 214 / 8;
#X obj 68 280 random 8;
#X floatatom 68 302 5 0 0 0 - - -;
#X obj 119 162 + 1;
#X obj 9 285 spigot;
#X obj 42 260 > 0;
#X floatatom 15 153 5 0 0 0 - - -;
#X obj 119 185 t b f;
#X obj 63 23 r \$0-length;
#X floatatom 37 392 5 0 0 0 - - -;
#X obj 37 412 * 2000;
#X obj 280 403 vline~;
#N canvas 205 78 479 571 smoother 0;
#X obj 119 114 inlet;
#X obj 119 185 t b f b;
#X msg 169 184 set 0 \$1;
#X msg 125 400 set 1 \$1;
#X obj 298 102 inlet;
#X obj 41 392 outlet;
#X obj 158 505 outlet;
#X text 157 114 f playPos change;
#X text 337 103 f ms to fade;
#X text 38 414 f playPos;
#X text 158 523 msg to vline~;
#X text 9 41 inlets: [f] playPos \, [f] ms to fade;
#X text 9 58 outlets [f] playPos \, [msg( to vline~;
#X text 10 11 handles timing for fading level to zero while changing
playPos, f 70;
#X text 10 543 2020.06.06;
#X msg 158 207 0 0;
#X obj 138 279 pipe;
#X obj 119 325 delay;
#X msg 119 421 1 0;
#X connect 0 0 1 0;
#X connect 1 0 17 0;
#X connect 1 1 16 0;
#X connect 1 2 15 0;
#X connect 2 0 15 0;
#X connect 3 0 18 0;
#X connect 4 0 2 0;
#X connect 4 0 3 0;
#X connect 4 0 16 1;
#X connect 4 0 17 1;
#X connect 15 0 6 0;
#X connect 16 0 5 0;
#X connect 17 0 18 0;
#X connect 18 0 6 0;
#X restore 212 438 pd smoother;
#X obj 287 556 vline~;
#X obj 349 563 *~;
#X floatatom 242 392 5 0 0 0 - - -;
#X obj 280 383 pack 0 5;
#X floatatom 271 301 5 0 0 0 - - -;
#X obj 355 412 pack 0 5;
#X obj 355 433 vline~;
#X obj 820 75 route rec clear length;
#X obj 487 112 sel 1;
#X connect 1 0 28 0;
#X connect 5 0 90 0;
#X connect 7 0 6 0;
#X connect 9 0 37 0;
#X connect 10 0 12 0;
#X connect 12 0 11 0;
#X connect 14 0 91 0;
#X connect 15 0 16 0;
#X connect 16 0 2 0;
#X connect 17 0 18 0;
#X connect 18 0 19 0;
#X connect 18 0 41 0;
#X connect 18 0 54 0;
#X connect 20 0 32 0;
#X connect 20 0 53 0;
#X connect 21 0 45 0;
#X connect 22 0 46 0;
#X connect 23 0 47 0;
#X connect 24 0 52 0;
#X connect 25 0 21 0;
#X connect 26 0 25 1;
#X connect 30 0 51 0;
#X connect 31 0 21 0;
#X connect 32 0 0 0;
#X connect 33 0 50 0;
#X connect 34 0 35 0;
#X connect 36 0 8 0;
#X connect 37 0 39 0;
#X connect 37 1 7 0;
#X connect 37 2 36 0;
#X connect 39 0 38 0;
#X connect 40 0 29 0;
#X connect 41 0 42 0;
#X connect 42 0 32 1;
#X connect 42 0 84 1;
#X connect 43 0 20 1;
#X connect 44 0 43 0;
#X connect 45 0 44 0;
#X connect 45 1 23 0;
#X connect 46 0 43 0;
#X connect 47 0 25 0;
#X connect 47 1 49 0;
#X connect 49 0 48 0;
#X connect 50 0 34 0;
#X connect 51 0 20 0;
#X connect 52 0 53 0;
#X connect 53 0 27 0;
#X connect 54 0 55 0;
#X connect 55 0 53 1;
#X connect 56 0 88 0;
#X connect 57 0 84 0;
#X connect 58 0 86 0;
#X connect 59 0 60 0;
#X connect 59 0 79 0;
#X connect 61 0 64 0;
#X connect 62 0 63 0;
#X connect 63 0 66 0;
#X connect 63 1 70 0;
#X connect 64 0 71 0;
#X connect 65 0 62 1;
#X connect 66 0 61 0;
#X connect 67 0 68 0;
#X connect 68 0 61 0;
#X connect 69 0 62 0;
#X connect 69 1 65 0;
#X connect 69 2 67 0;
#X connect 70 0 61 1;
#X connect 71 0 72 0;
#X connect 72 0 74 0;
#X connect 73 0 77 0;
#X connect 74 0 59 0;
#X connect 75 0 74 1;
#X connect 76 0 75 0;
#X connect 76 0 73 0;
#X connect 77 0 70 0;
#X connect 77 1 70 1;
#X connect 78 0 69 0;
#X connect 79 0 80 0;
#X connect 80 0 82 0;
#X connect 81 0 57 0;
#X connect 82 0 58 0;
#X connect 82 1 83 0;
#X connect 84 0 32 0;
#X connect 85 0 82 1;
#X connect 86 0 81 0;
#X connect 87 0 86 1;
#X connect 88 0 89 0;
#X connect 89 0 57 0;
#X connect 90 0 13 0;
#X connect 90 1 9 0;
#X connect 90 2 29 0;
#X connect 91 0 31 0;
#X restore 1140 530 pd bufferlooper;
#X obj 667 115 bng 15 250 50 0 empty empty empty 17 7 0 10 -262144
-1 -1;
#X obj 667 82 metro 500;
#X msg 690 115 \; r 1 5 1 150 0 \;;
#X obj -142 297 del 100;
#X msg -142 318 \; pd dsp 1;
#N canvas 250 97 598 443 lcd-handler 0;
#X obj 104 351 s toGUI;
#X msg 108 276 list /matrix-lcd clear;
#X obj 307 197 * 0.125;
#X obj 363 250 + 0.125;
#X floatatom 312 174 5 0 0 0 - - -;
#X obj 307 218 t f f;
#X floatatom 364 172 5 0 0 0 - - -;
#X obj 360 197 * 0.125;
#X obj 360 218 t f f;
#X obj 425 252 + 0.125;
#X obj 298 291 pack f f f f f;
#X floatatom 443 174 5 0 0 0 - - -;
#X msg 104 330 list /matrix-lcd paintrect \$1 \$2 \$3 \$4 \$5 \$5 \$5
1;
#X text 318 143 x;
#X text 367 143 y;
#X text 441 147 val;
#X obj 309 123 unpack f f f;
#X obj 307 57 inlet;
#X obj 307 78 route set clear;
#X connect 1 0 0 0;
#X connect 2 0 5 0;
#X connect 3 0 10 2;
#X connect 4 0 2 0;
#X connect 5 0 10 0;
#X connect 5 1 3 0;
#X connect 6 0 7 0;
#X connect 7 0 8 0;
#X connect 8 0 10 1;
#X connect 8 1 9 0;
#X connect 9 0 10 3;
#X connect 10 0 12 0;
#X connect 11 0 10 4;
#X connect 12 0 0 0;
#X connect 16 0 4 0;
#X connect 16 1 6 0;
#X connect 16 2 11 0;
#X connect 17 0 18 0;
#X connect 18 0 16 0;
#X connect 18 1 1 0;
#X restore -139 240 pd lcd-handler;
#X msg -128 214 clear;
#X obj -135 194 r lcd;
#X text -148 98 todo LIMITER;
#X obj -153 120 declare -path mmp;
#X obj 304 488 mmp-tapeshift 1;
#X obj 790 491 mmp-tapeshift 3;
#X text 270 44 filter~;
#X text 253 61 tapeshift~;
#X text 270 77 filter~;
#X text 270 104 buffer~;
#X obj 1261 536 s~ i-7l;
#X obj 1347 536 s~ i-7r;
#X obj 1140 571 s~ i-6l;
#X obj 1022 574 s~ i-5l;
#X obj 1073 574 s~ i-5r;
#X obj 1193 571 s~ i-6r;
#X obj 392 -123 r~ i-6l;
#X obj 399 -103 r~ i-6r;
#X obj 407 -84 r~ i-7l;
#X obj 414 -64 r~ i-7r;
#X text 270 91 looper~;
#X obj 1024 528 twotap-looper;
#X msg 1069 468 rec \$1;
#X obj 1104 609 route length;
#X msg 1104 630 length \$1;
#X msg 1197 485 rec 1;
#X obj 1068 449 mmp-rec 5;
#X obj 1197 444 mmp-rec 6;
#X obj 491 494 mmp-filter 2;
#X obj 915 493 mmp-filter 4;
#X obj 1197 464 sel 1;
#X msg -151 470 transpose -7 \, window 300 \, delay 150 \, feedback
0;
#X text -153 46 \; r [out] [in] [value] [ms-to-fade] [ms-to-wait];
#X msg 64 616 /mark 1;
#X obj 50 577 tgl 15 0 empty empty empty 17 7 0 10 -262144 -1 -1 0
1;
#X msg 50 592 /rec-voicememo \$1;
#X msg 27 553 /rec \$1;
#X obj 27 538 tgl 15 0 empty empty empty 17 7 0 10 -262144 -1 -1 0
1;
#X msg 1062 660 list /5-length-label \$1;
#X obj 1062 681 s toGUI;
#X msg 894 -115 list /getTime;
#X obj 894 -93 s toSystem;
#X obj 764 -42 s toSystem;
#X msg 764 -63 list /textDialog text-1 "enter something";
#X obj 1053 504 twotap-looper;
#X obj 24 193 declare -path hcs;
#X obj 436 635 linear_pan_stereo~;
#X obj 178 528 tapeshift-st~;
#X obj 597 526 tapeshift-st~;
#X connect 0 0 26 0;
#X connect 1 0 0 0;
#X connect 1 1 0 0;
#X connect 2 0 9 0;
#X connect 2 1 10 0;
#X connect 4 0 56 0;
#X connect 4 1 56 1;
#X connect 4 2 119 0;
#X connect 4 3 119 1;
#X connect 4 4 54 0;
#X connect 4 5 54 1;
#X connect 4 6 120 0;
#X connect 4 7 120 1;
#X connect 4 8 55 0;
#X connect 4 9 55 1;
#X connect 4 10 93 0;
#X connect 4 11 116 0;
#X connect 4 13 65 0;
#X connect 5 0 4 0;
#X connect 6 0 4 1;
#X connect 11 0 4 2;
#X connect 12 0 4 3;
#X connect 15 0 4 4;
#X connect 16 0 4 5;
#X connect 17 0 4 6;
#X connect 18 0 4 7;
#X connect 25 0 27 0;
#X connect 26 0 4 16;
#X connect 27 0 1 0;
#X connect 28 0 33 0;
#X connect 29 0 31 0;
#X connect 31 0 44 0;
#X connect 31 0 45 0;
#X connect 33 0 43 0;
#X connect 36 0 4 8;
#X connect 37 0 4 9;
#X connect 38 0 41 0;
#X connect 39 0 103 0;
#X connect 39 0 69 0;
#X connect 40 0 41 0;
#X connect 44 0 46 0;
#X connect 45 0 47 0;
#X connect 48 0 58 0;
#X connect 49 0 48 0;
#X connect 54 0 13 0;
#X connect 54 1 14 0;
#X connect 55 0 34 0;
#X connect 55 1 35 0;
#X connect 60 0 4 10;
#X connect 61 0 4 11;
#X connect 63 0 82 0;
#X connect 63 1 83 0;
#X connect 64 0 67 0;
#X connect 65 0 84 0;
#X connect 65 0 87 0;
#X connect 67 0 66 0;
#X connect 67 0 68 0;
#X connect 69 0 70 0;
#X connect 72 0 71 0;
#X connect 73 0 71 0;
#X connect 76 0 119 2;
#X connect 77 0 120 2;
#X connect 88 0 4 12;
#X connect 89 0 4 13;
#X connect 90 0 4 14;
#X connect 91 0 4 15;
#X connect 93 0 85 0;
#X connect 93 1 95 0;
#X connect 94 0 93 1;
#X connect 94 0 116 1;
#X connect 95 0 96 0;
#X connect 95 0 110 0;
#X connect 96 0 65 1;
#X connect 97 0 65 1;
#X connect 98 0 94 0;
#X connect 98 1 93 1;
#X connect 98 1 116 1;
#X connect 99 0 102 0;
#X connect 99 1 65 1;
#X connect 100 0 54 2;
#X connect 100 1 54 3;
#X connect 100 2 54 4;
#X connect 101 0 55 2;
#X connect 101 1 55 3;
#X connect 101 2 55 4;
#X connect 102 0 97 0;
#X connect 105 0 56 2;
#X connect 106 0 107 0;
#X connect 107 0 56 2;
#X connect 108 0 56 2;
#X connect 109 0 108 0;
#X connect 110 0 111 0;
#X connect 112 0 113 0;
#X connect 115 0 114 0;
#X connect 116 0 86 0;
#X connect 119 0 7 0;
#X connect 120 0 19 0;
#X connect 120 1 20 0;
